<svg width="50" height="50" xmlns="http://www.w3.org/2000/svg">

 <g>
  <title>background</title>
  <rect fill="none" id="canvas_background" height="52" width="52" y="-1" x="-1"/>
 </g>
 <g>
  <title>Layer 1</title>
  <g id="svg_35">
   <path id="svg_1" d="m24.648248,48.266109l-3.99824,-0.407654l-0.080678,-1.557569l-2.253049,-0.596168l-0.840582,1.313849l-3.676517,-1.622984l0.404581,-1.506327l-1.958483,-1.263202l-1.20532,0.989946l-2.995013,-2.679832l0.850295,-1.307605l-1.472431,-1.806641l-1.452211,0.568912l-2.020528,-3.474127l1.212852,-0.980827l-0.841969,-2.173163l-1.557073,0.092473l-0.847916,-3.928563l1.456671,-0.558009l-0.129343,-2.327086l-1.5094,-0.393282l0.407555,-3.998141l1.557668,-0.080778l0.596069,-2.253049l-1.313849,-0.840384l1.622984,-3.676517l1.506327,0.404581l1.263202,-1.958582l-0.989946,-1.205419l2.679931,-2.995013l1.307506,0.850295l1.806641,-1.472431l-0.569011,-1.45231l3.474226,-2.020231l0.980827,1.212753l2.173163,-0.842069l-0.092374,-1.556974l3.928365,-0.847916l0.558207,1.456374l2.326987,-0.129244l0.393282,-1.509301l3.99824,0.407456l0.080678,1.557767l2.25295,0.596168l0.840483,-1.314047l3.676517,1.623182l-0.404581,1.506327l1.958681,1.263202l1.20532,-0.989748l2.995013,2.679732l-0.850295,1.307506l1.472331,1.80674l1.452211,-0.569011l2.020528,3.474127l-1.212852,0.980827l0.842069,2.173262l1.557073,-0.092374l0.847916,3.928365l-1.456572,0.558009l0.129343,2.327086l1.5094,0.393282l-0.407753,3.99824l-1.55747,0.080678l-0.596069,2.25295l1.313849,0.840384l-1.623182,3.676616l-1.506228,-0.404581l-1.263202,1.958582l0.989748,1.20532l-2.679633,2.995013l-1.307605,-0.850295l-1.806641,1.472331l0.569011,1.452211l-3.474226,2.020528l-0.980827,-1.212852l-2.173163,0.842069l0.092374,1.557073l-3.928365,0.847916l-0.558306,-1.456572l-2.326789,0.129343l-0.393382,1.5094zm-3.052399,-1.307407l2.307561,0.235196l0.361368,-1.386697l3.770477,-0.209427l0.512912,1.338132l2.267222,-0.489423l-0.084742,-1.430506l3.521404,-1.364397l0.90114,1.114135l2.004968,-1.166071l-0.522725,-1.334167l2.927417,-2.385861l1.201355,0.781213l1.546567,-1.72854l-0.909466,-1.107395l2.046793,-3.173615l1.383922,0.371676l0.936722,-2.121921l-1.207005,-0.772094l0.965762,-3.650847l1.431001,-0.074137l0.235296,-2.307462l-1.386697,-0.361368l-0.209427,-3.770774l1.338132,-0.512615l-0.489423,-2.267222l-1.430506,0.084841l-1.364397,-3.521404l1.114135,-0.90114l-1.166071,-2.004968l-1.334167,0.522725l-2.385861,-2.927516l0.781213,-1.201256l-1.72854,-1.546567l-1.107395,0.909367l-3.173615,-2.046893l0.371676,-1.383823l-2.121822,-0.936821l-0.772193,1.207302l-3.650847,-0.96606l-0.074137,-1.4311l-2.307462,-0.235196l-0.361368,1.386598l-3.770576,0.209427l-0.512813,-1.337933l-2.267222,0.489323l0.084841,1.430506l-3.521305,1.364397l-0.901041,-1.114234l-2.005067,1.165972l0.522725,1.334167l-2.927318,2.386059l-1.201355,-0.781114l-1.546667,1.72854l0.909466,1.107296l-2.046893,3.173714l-1.383922,-0.371676l-0.936722,2.121822l1.207104,0.772193l-0.96596,3.650648l-1.431001,0.074236l-0.235196,2.307561l1.386697,0.361269l0.209526,3.770774l-1.338231,0.512714l0.489323,2.267222l1.430605,-0.085039l1.364397,3.521603l-1.114234,0.90114l1.166071,2.004968l1.334266,-0.522725l2.385861,2.927417l-0.781114,1.201355l1.72854,1.546567l1.107395,-0.909466l3.173615,2.046793l-0.371676,1.384021l2.121822,0.936623l0.772293,-1.207104l3.650748,0.96596l0.07384,1.4311z" fill="#000000"/>
   <path id="svg_2" d="m26.603361,42.724473c-0.228159,0 -0.42262,-0.173944 -0.443731,-0.405573c-0.0224,-0.245306 0.158383,-0.462265 0.403689,-0.484665l0.09614,-0.009019c0.244711,-0.024382 0.463257,0.155608 0.486945,0.400815c0.023787,0.245207 -0.155608,0.463257 -0.400815,0.486945l-0.101294,0.009614c-0.013678,0.001288 -0.027355,0.001883 -0.040934,0.001883zm-3.952647,-0.084445c-0.020021,0 -0.04024,-0.001388 -0.060657,-0.004163l-0.099609,-0.013777c-0.243918,-0.033996 -0.414195,-0.259281 -0.380199,-0.503298c0.033996,-0.243918 0.259777,-0.413997 0.503298,-0.380199l0.096735,0.01338c0.244117,0.033203 0.415087,0.257993 0.381884,0.50201c-0.030428,0.223798 -0.221816,0.386047 -0.441452,0.386047zm7.91818,-0.755245c-0.185739,0 -0.358989,-0.116855 -0.422224,-0.302296c-0.07939,-0.233313 0.045196,-0.486647 0.27841,-0.566037l0.092671,-0.031617c0.233313,-0.080084 0.486747,0.044006 0.56683,0.276824c0.080084,0.233016 -0.043907,0.486747 -0.276824,0.56683l-0.09505,0.03241c-0.047674,0.016255 -0.09614,0.023886 -0.143814,0.023886zm-11.845057,-0.256704c-0.05372,0 -0.108232,-0.009812 -0.161258,-0.030329l-0.095347,-0.037366c-0.229051,-0.09059 -0.341248,-0.349772 -0.250658,-0.578823s0.349772,-0.341149 0.578823,-0.250658l0.089995,0.035185c0.229646,0.089103 0.343527,0.347591 0.254424,0.577138c-0.068686,0.176719 -0.237278,0.284852 -0.415979,0.284852zm15.505518,-1.485414c-0.147877,0 -0.292583,-0.073542 -0.377424,-0.207841c-0.131623,-0.208337 -0.069479,-0.483773 0.13866,-0.615297l0.082066,-0.051935c0.207445,-0.132416 0.483377,-0.071659 0.615792,0.136281c0.132515,0.207643 0.071461,0.483377 -0.136281,0.615792l-0.08494,0.053918c-0.073939,0.046782 -0.156401,0.069082 -0.237872,0.069082zm-19.087382,-0.415087c-0.087418,0 -0.175629,-0.025571 -0.253037,-0.078993l-0.08385,-0.058279c-0.201795,-0.141237 -0.250856,-0.419349 -0.10962,-0.621244c0.141336,-0.201696 0.41925,-0.250757 0.621144,-0.10952l0.079093,0.055008c0.202687,0.139948 0.253632,0.417764 0.113584,0.620451c-0.086427,0.125279 -0.225781,0.192578 -0.367315,0.192578zm22.242562,-2.128166c-0.112692,0 -0.225285,-0.042421 -0.312009,-0.127361c-0.176026,-0.172358 -0.178999,-0.454733 -0.006541,-0.630659l0.067992,-0.069677c0.171466,-0.176719 0.45394,-0.180684 0.630659,-0.009118c0.17662,0.171566 0.180783,0.45394 0.009118,0.630659l-0.07047,0.072254c-0.087517,0.089202 -0.203084,0.133902 -0.318749,0.133902zm-25.285446,-0.549684c-0.12191,0 -0.243423,-0.049755 -0.331436,-0.147382l-0.067893,-0.075822c-0.163736,-0.183955 -0.147382,-0.465933 0.036573,-0.629767c0.184054,-0.163736 0.465933,-0.147481 0.629767,0.036573l0.064226,0.071758c0.164925,0.183063 0.150256,0.464942 -0.032707,0.629866c-0.085436,0.076912 -0.192181,0.114773 -0.29853,0.114773zm27.769033,-2.653864c-0.078399,0 -0.157789,-0.020715 -0.229844,-0.064027c-0.210914,-0.127163 -0.278806,-0.401311 -0.151743,-0.612323l0.049755,-0.082958c0.125973,-0.211706 0.399824,-0.280789 0.611431,-0.155113c0.211706,0.125973 0.281086,0.399725 0.155113,0.611431l-0.052233,0.08722c-0.08385,0.138759 -0.231232,0.21577 -0.382479,0.21577zm-30.111085,-0.653059c-0.157987,0 -0.311018,-0.084147 -0.391994,-0.232619l-0.048467,-0.0895c-0.116458,-0.21696 -0.034987,-0.48744 0.182072,-0.603899c0.217158,-0.116458 0.48744,-0.034987 0.603899,0.182072l0.045691,0.084346c0.117846,0.216365 0.038159,0.487242 -0.178107,0.605088c-0.067695,0.036969 -0.140939,0.054512 -0.213094,0.054512zm31.784122,-3.040109c-0.044799,0 -0.090292,-0.00674 -0.13529,-0.021111c-0.234701,-0.074632 -0.36454,-0.32539 -0.289808,-0.56019l0.02904,-0.092275c0.073146,-0.235196 0.323407,-0.36672 0.558306,-0.293475c0.235196,0.073146 0.366621,0.32311 0.293475,0.558306l-0.030824,0.097825c-0.060261,0.189703 -0.235791,0.310919 -0.4249,0.310919zm-33.294414,-0.721249c-0.196443,0 -0.376433,-0.13083 -0.430252,-0.329652l-0.026166,-0.097825c-0.063135,-0.238071 0.078696,-0.482286 0.316767,-0.545422c0.237972,-0.063036 0.482286,0.078696 0.545422,0.316767l0.024977,0.093563c0.064325,0.237674 -0.076317,0.482683 -0.313992,0.547008c-0.038952,0.010506 -0.078101,0.015561 -0.116756,0.015561zm34.059174,-3.259745c-0.010506,0 -0.02121,-0.000396 -0.031815,-0.00109c-0.245702,-0.017444 -0.430946,-0.230637 -0.413601,-0.47634l0.00674,-0.097429c0.016651,-0.245901 0.232619,-0.431045 0.475051,-0.415087c0.245702,0.016651 0.43154,0.22925 0.415087,0.475051l-0.006938,0.100204c-0.016651,0.235196 -0.212499,0.414691 -0.444524,0.414691zm-34.649989,-0.750091c-0.240251,0 -0.438478,-0.19119 -0.445614,-0.432928l-0.002676,-0.100798c-0.006145,-0.246198 0.188514,-0.450867 0.434712,-0.457012c0.249271,-0.007235 0.450867,0.188514 0.457012,0.434811l0.002577,0.096933c0.007235,0.246099 -0.186433,0.45166 -0.43273,0.458896c-0.004361,0 -0.008821,0.000099 -0.013281,0.000099zm34.474558,-3.299192c-0.215275,0 -0.404681,-0.156203 -0.439866,-0.375541l-0.015462,-0.095149c-0.040438,-0.243026 0.123694,-0.472772 0.36672,-0.51321c0.243225,-0.040141 0.472772,0.123793 0.513111,0.36672l0.016453,0.100501c0.039051,0.243225 -0.126568,0.471979 -0.369793,0.51093c-0.023985,0.003865 -0.047674,0.005749 -0.071164,0.005749zm-34.125976,-0.738594c-0.029833,0 -0.060162,-0.002973 -0.09059,-0.009317c-0.241242,-0.049755 -0.396454,-0.285645 -0.346699,-0.526888l0.020814,-0.099609c0.051242,-0.240945 0.287925,-0.39467 0.528969,-0.343527c0.240945,0.051242 0.394769,0.288123 0.343527,0.528969l-0.019724,0.094356c-0.043511,0.210814 -0.22915,0.356016 -0.436298,0.356016zm33.018085,-3.159838c-0.175134,0 -0.341149,-0.103673 -0.412312,-0.275536l-0.036573,-0.087121c-0.096338,-0.226673 0.009416,-0.488531 0.236088,-0.584869s0.48863,0.009317 0.584869,0.236088l0.039844,0.094852c0.094158,0.227565 -0.013975,0.488431 -0.24154,0.582688c-0.055801,0.022895 -0.113584,0.033897 -0.170376,0.033897zm-31.74071,-0.687947c-0.063532,0 -0.127956,-0.013579 -0.189208,-0.042321c-0.223005,-0.104664 -0.318848,-0.370288 -0.214283,-0.593294l0.043213,-0.091383c0.105556,-0.222609 0.371378,-0.317659 0.594086,-0.211905c0.222609,0.105457 0.317461,0.371477 0.212004,0.594086l-0.041727,0.08831c-0.07602,0.161654 -0.236584,0.256506 -0.404086,0.256506zm29.754574,-2.84327c-0.137669,0 -0.273355,-0.063532 -0.360773,-0.183162l-0.057288,-0.078399c-0.146093,-0.198326 -0.103574,-0.477529 0.094852,-0.623622c0.198425,-0.146093 0.477628,-0.103475 0.623523,0.094951l0.059666,0.081273c0.145201,0.19902 0.101492,0.478025 -0.097429,0.623226c-0.07939,0.057882 -0.171367,0.085733 -0.262552,0.085733zm-27.615209,-0.600628c-0.097528,0 -0.195749,-0.031815 -0.277815,-0.097329c-0.192578,-0.153626 -0.224096,-0.434216 -0.07047,-0.626794l0.063135,-0.078795c0.154419,-0.191983 0.435009,-0.222411 0.627091,-0.067992c0.191983,0.154419 0.222312,0.435207 0.067992,0.627091l-0.060856,0.075921c-0.088112,0.110313 -0.21805,0.167898 -0.349078,0.167898zm24.864115,-2.376544c-0.102781,0 -0.205958,-0.035284 -0.290105,-0.10734l-0.073047,-0.062144c-0.188117,-0.158978 -0.211806,-0.440361 -0.052828,-0.628578c0.158879,-0.188316 0.440461,-0.211706 0.628578,-0.052828l0.077903,0.066307c0.187027,0.160267 0.208634,0.441848 0.048367,0.628875c-0.08831,0.10288 -0.213193,0.155707 -0.338869,0.155707zm-21.986552,-0.479016c-0.132118,0 -0.263047,-0.058477 -0.35106,-0.170475c-0.152139,-0.193767 -0.118441,-0.474159 0.075227,-0.626298l0.080579,-0.062838c0.194758,-0.150752 0.474952,-0.115071 0.625704,0.079687c0.150752,0.194758 0.115071,0.474952 -0.079687,0.625704l-0.075525,0.058973c-0.08167,0.064126 -0.178801,0.095248 -0.275238,0.095248zm18.621846,-1.782557c-0.068686,0 -0.138362,-0.015957 -0.203777,-0.049557l-0.085832,-0.043808c-0.219834,-0.111304 -0.307648,-0.379704 -0.196344,-0.599439c0.111304,-0.219735 0.379803,-0.307847 0.599439,-0.196245l0.091085,0.046484c0.219041,0.112791 0.305171,0.381686 0.192379,0.600727c-0.079093,0.153527 -0.235196,0.241837 -0.39695,0.241837zm-15.163973,-0.329751c-0.16879,0 -0.330246,-0.096239 -0.405473,-0.259677c-0.102979,-0.223699 -0.005055,-0.48863 0.218744,-0.591609l0.092176,-0.042024c0.224294,-0.10169 0.488531,-0.00218 0.59032,0.222113c0.10169,0.224393 0.00218,0.48863 -0.222113,0.59032l-0.087418,0.039943c-0.060459,0.027752 -0.123892,0.040934 -0.186234,0.040934zm11.365744,-1.087077c-0.035086,0 -0.070569,-0.004163 -0.106051,-0.012786l-0.09396,-0.022598c-0.239557,-0.057089 -0.387633,-0.297539 -0.330643,-0.537096s0.297043,-0.387633 0.537195,-0.330643l0.098816,0.023886c0.239359,0.058378 0.386047,0.299719 0.327669,0.538979c-0.049755,0.203678 -0.232223,0.340257 -0.433027,0.340257zm-7.511021,-0.161952c-0.208733,0 -0.395166,-0.147184 -0.437091,-0.359782c-0.047674,-0.241639 0.10952,-0.47624 0.351258,-0.523914l0.100006,-0.019426c0.242134,-0.046088 0.475547,0.112692 0.521734,0.354529c0.046187,0.241936 -0.112593,0.475547 -0.354529,0.521734l-0.094554,0.018435c-0.029139,0.005649 -0.05818,0.008425 -0.086823,0.008425zm3.487805,-0.330444c-0.000892,0 -0.001784,0 -0.002676,0l-0.096537,-0.000297c-0.246297,0 -0.446011,-0.199714 -0.446011,-0.446011s0.199714,-0.446011 0.446011,-0.446011l0.10169,0.000297c0.246297,0.001487 0.444822,0.202291 0.443335,0.448588c-0.001288,0.245405 -0.200804,0.443434 -0.445813,0.443434z" fill="#000000"/>
   <path id="svg_3" d="m25.000001,43.704012c-10.313555,0 -18.70411,-8.390555 -18.70411,-18.70411c0,-10.313456 8.390654,-18.70411 18.70411,-18.70411c10.313456,0 18.704011,8.390654 18.704011,18.70411c0.000099,10.313555 -8.390555,18.70411 -18.704011,18.70411zm0,-37.209993c-10.204233,0 -18.505883,8.30165 -18.505883,18.505883c0,10.204134 8.301749,18.505883 18.505883,18.505883s18.505784,-8.301749 18.505784,-18.505883c0.000099,-10.204233 -8.301551,-18.505883 -18.505784,-18.505883z" fill="#000000"/>
   <path id="svg_4" d="m23.826002,24.930027c0,0 -0.96824,-0.443632 -1.064975,-1.024537c0,0 -0.677837,-0.532636 -1.839745,-0.532636c0,0 -2.56595,-0.193569 -2.372282,1.839745c0,0 0.193569,1.888014 2.856353,1.742614c0,0 1.839646,0.282771 2.130049,-0.871307l0.290601,-1.15388z" fill="#000000"/>
   <path id="svg_5" d="m20.077925,28.782669c0,0 -0.39913,2.087034 1.343682,3.926581c0,0 -0.290502,-3.262916 0,-3.453115c-0.000099,0 -0.571489,-0.580904 -1.343682,-0.473465z" fill="#000000"/>
   <path id="svg_6" d="m29.445045,28.782669c0,0 0.399328,2.087034 -1.343682,3.926581c0,0 0.290601,-3.262916 0,-3.453115c0.000297,0 0.571489,-0.580904 1.343682,-0.473465z" fill="#000000"/>
   <path id="svg_7" d="m23.866341,34.205467c-0.10734,-0.383867 -0.06601,-1.253984 -0.059765,-1.372722c-0.058973,-0.565443 -0.000991,-1.060217 0.001487,-1.08113l0.295259,0.035384c-0.000595,0.004857 -0.057089,0.490513 0.000198,1.026221l0.001288,0.011993l-0.000694,0.012092c-0.014471,0.258092 -0.034095,0.992424 0.048566,1.28798l-0.286339,0.080183z" fill="#000000"/>
   <path id="svg_8" d="m23.227752,33.823484c-0.016651,-0.094356 -0.159771,-0.918287 -0.124288,-1.23545c-0.007533,-0.125874 -0.043808,-0.776951 -0.003271,-0.994406l0.292286,0.054612c-0.027058,0.145003 -0.009713,0.638787 0.008524,0.935334l0.000892,0.014867l-0.002081,0.014768c-0.030527,0.218942 0.076615,0.910457 0.120522,1.158439l-0.292583,0.051836z" fill="#000000"/>
   <path id="svg_9" d="m22.603635,33.548047c-0.113683,-0.39804 -0.106943,-1.075976 -0.105457,-1.167756c-0.044898,-0.441848 -0.000991,-0.887165 0.000892,-0.906096l0.295854,0.029833c-0.000396,0.004361 -0.043313,0.440857 -0.000099,0.854557l0.000991,0.009218l-0.000198,0.009317c-0.000099,0.007037 -0.013281,0.714014 0.09396,1.089258l-0.285943,0.08167z" fill="#000000"/>
   <path id="svg_10" d="m22.0932,33.147431c-0.129541,-0.37455 -0.138065,-0.902528 -0.138462,-0.996388c-0.070965,-0.414592 0.046682,-0.761588 0.051737,-0.776257l0.281086,0.097032c-0.000991,0.002874 -0.09951,0.298728 -0.03796,0.639778l0.002379,0.01338l0,0.013678c0,0.00555 -0.000694,0.556225 0.122108,0.911646l-0.280888,0.097131z" fill="#000000"/>
   <path id="svg_11" d="m21.593271,32.890826c-0.053521,-0.418259 -0.00218,-0.798756 0.017048,-0.917494c-0.094356,-0.333715 0.006145,-0.661285 0.010605,-0.675459l0.283663,0.089004l-0.141831,-0.044502l0.14203,0.044106c-0.000892,0.002676 -0.083454,0.277716 -0.000694,0.531248l0.011894,0.036375l-0.007235,0.037762c-0.000793,0.004163 -0.077606,0.415484 -0.020616,0.861098l-0.294863,0.037861z" fill="#000000"/>
   <g id="svg_12">
    <path id="svg_13" d="m20.582313,22.178735c-0.247387,0.004857 -0.492792,0.03023 -0.734035,0.06928c-0.241242,0.038753 -0.478124,0.09723 -0.704598,0.176918c-0.225384,0.081769 -0.440163,0.188316 -0.625406,0.328066c-0.184748,0.140047 -0.334805,0.316569 -0.43382,0.518265l-0.092076,0.187523l-0.126667,-0.165916c-0.13866,-0.181477 -0.233611,-0.367116 -0.310424,-0.571588c-0.072848,-0.203381 -0.115368,-0.419845 -0.119927,-0.639282c-0.004163,-0.21914 0.029635,-0.440956 0.104069,-0.64741c0.074137,-0.206652 0.183558,-0.397544 0.313199,-0.568713l-0.023886,0.048863c0.077804,-0.305567 0.142723,-0.627488 0.193271,-0.946237c0.048566,-0.320236 0.091383,-0.642157 0.115765,-0.96606c0.027058,-0.323804 0.039249,-0.648896 0.039249,-0.97498c-0.00109,-0.325984 -0.016948,-0.652762 -0.047475,-0.980332c0.083255,0.318353 0.139948,0.644634 0.174043,0.973394c0.035681,0.32876 0.047971,0.660393 0.044304,0.99173c-0.006442,0.331237 -0.024877,0.662871 -0.066406,0.992226c-0.040934,0.330544 -0.090491,0.655438 -0.173944,0.985684l-0.006442,0.025571l-0.017444,0.023292c-0.227069,0.304378 -0.360476,0.666836 -0.356908,1.038611c0.001288,0.18564 0.036077,0.371676 0.09614,0.550576c0.057783,0.176918 0.145499,0.3578 0.247685,0.501812l-0.218744,0.021607c0.125379,-0.239161 0.318452,-0.43719 0.536105,-0.581697c0.217653,-0.146886 0.45949,-0.244216 0.704598,-0.309234c0.245108,-0.066604 0.495766,-0.099312 0.745135,-0.11289c0.249469,-0.011695 0.499235,-0.003865 0.74464,0.030923z" fill="#000000"/>
   </g>
   <g id="svg_14">
    <path id="svg_15" d="m18.918495,28.801798c0.125973,0.00446 0.23926,-0.033104 0.357007,-0.066406c0.117152,-0.032212 0.235196,-0.070073 0.356809,-0.099312c0.242333,-0.05927 0.499433,-0.098519 0.763571,-0.080381c0.262651,0.016453 0.533528,0.100501 0.750587,0.259677c0.217158,0.158978 0.374253,0.380794 0.452552,0.62164c-0.183856,-0.174638 -0.368901,-0.324993 -0.574165,-0.422025c-0.203877,-0.098717 -0.422125,-0.147084 -0.650086,-0.162943c-0.227862,-0.016354 -0.463851,-0.001487 -0.707373,0.014272c-0.12191,0.007632 -0.246297,0.012984 -0.373361,0.012786c-0.124387,-0.005352 -0.26384,-0.007632 -0.375541,-0.077309z" fill="#000000"/>
   </g>
   <g id="svg_16">
    <path id="svg_17" d="m27.924148,29.437116c0.078993,-0.240945 0.233016,-0.463653 0.44829,-0.625803c0.215869,-0.162249 0.489224,-0.247982 0.753461,-0.261759c0.266021,-0.015858 0.522626,0.02904 0.763868,0.090986c0.121018,0.030626 0.238269,0.069082 0.355223,0.100898c0.11745,0.033104 0.231133,0.066406 0.3578,0.061054c-0.110512,0.070668 -0.249964,0.077903 -0.375739,0.08385c-0.127757,0.000694 -0.253334,-0.00555 -0.375442,-0.014966c-0.244513,-0.018633 -0.480502,-0.038456 -0.707968,-0.024778c-0.227664,0.012587 -0.444722,0.061549 -0.647707,0.162546c-0.204174,0.099312 -0.388129,0.253136 -0.571786,0.427972z" fill="#000000"/>
   </g>
   <path id="svg_18" d="m26.131283,37.343897c-0.380794,0 -0.841176,-0.036672 -1.36965,-0.109025c-0.528374,0.072254 -0.988757,0.109025 -1.369352,0.109025c-0.000099,0 -0.000099,0 -0.000198,0c-0.787655,0 -1.268455,-0.151644 -1.513166,-0.477133c-0.096933,-0.128947 -0.134993,-0.256704 -0.146093,-0.362954c-0.241044,-0.460779 -1.132273,-1.380354 -1.725864,-1.919928c-1.458456,-1.275888 -1.581654,-4.34038 -1.583735,-5.288896c-0.564848,-0.404581 -1.596422,-1.32485 -1.624768,-2.108244c-0.014173,-0.390904 0.19902,-0.711536 0.585067,-0.879335l0.063532,-0.027653l0.054314,-0.007136c0.050845,-0.11963 0.027454,-0.478718 -0.051539,-0.756335c-1.65024,-4.304104 -1.669865,-7.675946 -0.05818,-10.021963c2.214394,-3.22337 6.792547,-3.316438 7.307244,-3.316438c0.029536,0 0.050746,0.000198 0.062937,0.000396c0.012191,-0.000198 0.033302,-0.000396 0.062937,-0.000396c0.514697,0 5.09275,0.093068 7.307244,3.316537c1.611586,2.345819 1.591961,5.717463 -0.057981,10.021071c-0.079489,0.283167 -0.102781,0.637201 -0.051836,0.756732l0.047872,0.006343l0.069974,0.028842c0.393183,0.170872 0.610044,0.49418 0.595177,0.887165c-0.028941,0.763174 -1.067552,1.688894 -1.635175,2.098035c-0.002081,0.94584 -0.125279,4.015287 -1.59097,5.297618c-0.547305,0.497946 -1.468962,1.432091 -1.718629,1.912891c-0.010803,0.106448 -0.048863,0.234403 -0.145994,0.363648c-0.244414,0.325489 -0.725313,0.477133 -1.513166,0.477133zm-1.36965,-1.109774l0.06928,0.009812c0.511723,0.072254 0.94921,0.108926 1.300369,0.108926c0.388327,0 0.586752,-0.045196 0.67754,-0.076516l0.025869,-0.064523c0.316668,-0.791917 1.733892,-2.105766 2.01478,-2.361182c1.129894,-0.988856 1.289863,-3.800805 1.25666,-4.801357l-0.011993,-0.363053l0.30854,-0.109025c0.338968,-0.207246 1.211366,-0.994604 1.329013,-1.353792c-0.221816,-0.062342 -0.403491,-0.196146 -0.530852,-0.39249c-0.359485,-0.554838 -0.123297,-1.441507 -0.072254,-1.613667l0.012587,-0.036969c1.533584,-3.990311 1.592061,-7.060352 0.174043,-9.124589c-1.927461,-2.805607 -6.028977,-2.886582 -6.49035,-2.886582c-0.030824,0 -0.048268,0.000297 -0.051242,0.000396l-0.011695,0.000297l-0.012191,-0.000297c-0.002379,0 -0.020021,-0.000396 -0.050845,-0.000396c-0.461274,0 -4.562988,0.080976 -6.49035,2.886582c-1.418116,2.064337 -1.359639,5.134279 0.173944,9.124688l0.012587,0.036969c0.051043,0.17216 0.287231,1.059127 -0.072254,1.613766c-0.125279,0.193271 -0.303188,0.325885 -0.520247,0.389417c0.118441,0.357602 0.974782,1.167458 1.310182,1.354783l0.313199,0.125676l-0.008722,0.34878c-0.033203,1.000353 0.126469,3.812402 1.249425,4.794914c0.287925,0.26166 1.704852,1.575509 2.021718,2.367327l0.025869,0.064523c0.090788,0.03132 0.289213,0.076615 0.677639,0.076615c0.000099,0 0.000099,0 0.000198,0c0.35106,0 0.788448,-0.036573 1.300171,-0.108926l0.069379,-0.01011z" fill="#000000"/>
   <path id="svg_19" d="m25.697067,24.930027c0,0 0.96824,-0.443632 1.064975,-1.024537c0,0 0.677738,-0.532636 1.839646,-0.532636c0,0 2.566049,-0.193569 2.37248,1.839745c0,0 -0.193569,1.888014 -2.856154,1.742614c0,0 -1.839745,0.282771 -2.130148,-0.871307l-0.290799,-1.15388z" fill="#000000"/>
   <path id="svg_20" d="m24.761534,26.471342c0,0 0.112494,-0.387137 0.306261,0.129145c0,0 0.607467,1.504543 0.891328,1.911008c0.015858,0.022796 0.030923,0.042222 0.044502,0.057684c0.258191,0.290601 0.548593,1.065074 -0.774374,1.161908l-0.232124,0.176323c-0.139155,0.105556 -0.331733,0.105556 -0.470888,0l-0.232025,-0.176323c-1.323265,-0.096834 -1.032763,-0.871307 -0.774473,-1.161908c0.013678,-0.015462 0.028644,-0.034888 0.044502,-0.057684c0.283762,-0.406663 0.891229,-1.911008 0.891229,-1.911008c0.193668,-0.51658 0.306063,-0.129145 0.306063,-0.129145" fill="#000000"/>
   <path id="svg_21" d="m25.527384,32.004453l-0.074236,-0.137173c-0.025472,-0.04698 -0.058081,-0.073542 -0.105754,-0.08613c-0.162546,-0.042421 -0.426684,0.091085 -0.506569,0.141237l-0.079291,0.049755l-0.079291,-0.049953c-0.079786,-0.049953 -0.344221,-0.183459 -0.50647,-0.141039c-0.047773,0.012587 -0.08048,0.039249 -0.105853,0.08613l-0.074137,0.136975l-0.133407,-0.08048c-0.182171,-0.109818 -0.409537,-0.195947 -0.474258,-0.180188l-0.080579,0.066208l-0.092076,-0.062541c-0.178404,-0.121117 -0.388525,-0.184946 -0.420836,-0.146192l-0.078498,0.094158l-0.107439,-0.059171c-0.119134,-0.065415 -0.267507,-0.120126 -0.335202,-0.125577l-0.050251,0.137371l-0.155806,-0.098915c-0.06036,-0.037861 -0.144309,-0.069875 -0.180684,-0.069875c0,0 0,0 0,0l-0.131226,0.173944l-0.109719,-0.204868c-0.02458,-0.044998 -0.117747,-0.179296 -0.21577,-0.19793c-0.026761,-0.004857 -0.069776,-0.005352 -0.135587,0.049656l-0.190595,-0.228258c0.150653,-0.125874 0.29179,-0.131127 0.383272,-0.113188c0.152932,0.029635 0.268499,0.139453 0.339761,0.228754c0.093662,-0.015561 0.200408,0.010407 0.297638,0.055107c0.007533,-0.003766 0.015363,-0.007136 0.02349,-0.010209c0.149265,-0.055999 0.373361,0.02904 0.517273,0.098618c0.207544,-0.106844 0.503497,0.039546 0.647905,0.126172c0.177314,-0.041826 0.420241,0.058774 0.587644,0.146985c0.055603,-0.052927 0.123198,-0.090491 0.200308,-0.110611c0.242531,-0.063334 0.523815,0.059369 0.660691,0.13192c0.136777,-0.072551 0.417764,-0.195452 0.660691,-0.13192c0.077011,0.02012 0.144607,0.057684 0.200308,0.110611c0.167304,-0.08831 0.410925,-0.189307 0.587644,-0.146985c0.142525,-0.085337 0.432333,-0.228853 0.639381,-0.130433c0.164826,-0.091878 0.360476,-0.141931 0.508353,-0.062541c0.114179,-0.056594 0.23708,-0.09059 0.341149,-0.073939c0.071461,-0.084147 0.186829,-0.187424 0.338076,-0.21468c0.093167,-0.016651 0.235494,-0.01001 0.387435,0.116954l-0.190496,0.228258c-0.077209,-0.064325 -0.127559,-0.055702 -0.144309,-0.052431c-0.101096,0.018237 -0.194758,0.149562 -0.214184,0.183756l-0.1118,0.19565l-0.124883,-0.165024c-0.043114,0.000793 -0.143615,0.040141 -0.216761,0.08613l-0.113287,0.071263l-0.08276,-0.105159c-0.030131,-0.03806 -0.193569,0.019922 -0.298133,0.093068l-0.111998,0.078399l-0.087517,-0.104961c-0.032608,-0.039249 -0.242531,0.024382 -0.420638,0.145994l-0.092076,0.062739l-0.080778,-0.066307c-0.065217,-0.015462 -0.292187,0.070271 -0.474258,0.180188l-0.133605,0.080678z" fill="#000000"/>
   <path id="svg_22" d="m25.257003,34.388332c-0.200705,0 -0.392192,-0.07939 -0.495568,-0.130929c-0.174142,0.087022 -0.598844,0.252938 -0.896184,-0.015462c-0.193668,0.006244 -0.480205,-0.051737 -0.598348,-0.300611c-0.174539,-0.014768 -0.501614,-0.072848 -0.6261,-0.297341c-0.125379,-0.024283 -0.333121,-0.097825 -0.463554,-0.32083c-0.081868,0.009317 -0.189902,0.004757 -0.297241,-0.049061c-0.131325,-0.065811 -0.22588,-0.186036 -0.281284,-0.357502c-0.114278,-0.093266 -0.424206,-0.363846 -0.50092,-0.611035l0.28396,-0.088112c0.046385,0.149463 0.292781,0.382578 0.43719,0.494477l0.039645,0.030824l0.012984,0.048467c0.029833,0.111899 0.077507,0.184946 0.141633,0.217059c0.086427,0.043313 0.191091,0.006244 0.192082,0.006046l0.141534,-0.056594l0.053026,0.142922c0.094653,0.255019 0.344023,0.257993 0.3466,0.257993l0.119234,0l0.025869,0.116458c0.027058,0.122009 0.327669,0.173548 0.482584,0.174043l0.118342,0.000396l0.026463,0.115368c0.049755,0.219636 0.379902,0.176719 0.383371,0.176125l0.080381,-0.011002l0.052828,0.061549c0.203579,0.237872 0.643445,-0.027058 0.647905,-0.029833l0.078002,-0.047674l0.078101,0.047872c0.004163,0.002478 0.444029,0.267111 0.647608,0.029635l0.052828,-0.061549l0.080381,0.011002c0.013083,0.001784 0.334112,0.040736 0.38347,-0.176125l0.026364,-0.115765l0.118639,0c0.154716,-0.000496 0.455129,-0.051935 0.482286,-0.174043l0.025869,-0.116458l0.119234,0c0.008326,-0.000198 0.242927,-0.008524 0.348582,-0.263146l0.056197,-0.135587l0.136281,0.054512l0,0c0.000099,-0.000099 0.105457,0.038753 0.193965,-0.006938c0.063234,-0.032509 0.110214,-0.105259 0.13975,-0.216167l0.016156,-0.060459l0.054612,-0.030824c0.133209,-0.075425 0.353934,-0.249865 0.378217,-0.396256l0.293277,0.048764c-0.045989,0.277022 -0.345312,0.493784 -0.472871,0.574759c-0.055801,0.165817 -0.149067,0.282374 -0.277716,0.346897c-0.108926,0.054711 -0.218446,0.058675 -0.300909,0.048665c-0.13529,0.221023 -0.336887,0.295457 -0.459589,0.320434c-0.124189,0.225087 -0.451759,0.283266 -0.626397,0.298133c-0.118242,0.248775 -0.406564,0.30636 -0.598348,0.300611c-0.120621,0.108926 -0.26275,0.146292 -0.400419,0.146292z" fill="#000000"/>
   <path id="svg_23" d="m25.138859,33.169236c-0.138462,0 -0.273256,-0.030725 -0.377424,-0.068587c-0.247288,0.089995 -0.668025,0.139552 -0.899059,-0.167403c-0.212004,0.029932 -0.50201,0.012687 -0.670007,-0.169088c-0.097329,0.019823 -0.241044,0.030329 -0.379208,-0.030626c-0.09396,-0.041429 -0.171169,-0.110512 -0.227366,-0.202885c-0.124685,0.01001 -0.321822,0.005055 -0.464644,-0.095942c-0.05818,-0.041132 -0.102483,-0.094455 -0.131226,-0.157293c-0.128947,-0.017048 -0.314487,-0.062342 -0.410925,-0.182765c-0.162249,-0.018534 -0.444326,-0.078399 -0.519058,-0.271769l0.277419,-0.107043c0.025869,0.034987 0.195452,0.080778 0.340653,0.088806l0.106349,0.005947l0.028842,0.102483c0.022201,0.030428 0.172656,0.071461 0.296151,0.076516l0.123892,0.005253l0.017147,0.122703c0.004857,0.034392 0.017444,0.056495 0.042123,0.074137c0.084445,0.059964 0.272562,0.047376 0.350465,0.031815l0.123991,-0.02458l0.044601,0.118242c0.027256,0.072948 0.067001,0.120126 0.121414,0.144111c0.113386,0.049953 0.262552,-0.005947 0.264038,-0.006541l0.126072,-0.050845l0.061847,0.121117c0.082462,0.161159 0.407357,0.124387 0.514597,0.098717l0.113981,-0.027157l0.053422,0.104466c0.157194,0.309333 0.629767,0.105556 0.634426,0.103475l0.059964,-0.026562l0.059964,0.026562c0.019129,0.008326 0.478619,0.203678 0.634426,-0.103475l0.053323,-0.10506l0.114377,0.027851c0.106844,0.025373 0.431639,0.062442 0.514102,-0.098816l0.061946,-0.121117l0.125973,0.050845c0.040835,0.015858 0.170178,0.048566 0.265228,0.006145c0.053918,-0.024184 0.093167,-0.071164 0.120324,-0.143615l0.044502,-0.118936l0.124487,0.025373c0.077606,0.015462 0.265822,0.02795 0.350069,-0.032014c0.024778,-0.017543 0.037366,-0.039645 0.042222,-0.074038l0.017444,-0.124883l0.126072,-0.003172c0.111404,-0.003271 0.230439,-0.041727 0.245802,-0.069677l0.028446,-0.101195l0.104664,-0.005947c0.171566,-0.0112 0.365531,-0.061649 0.399031,-0.103673l0.27395,0.113881c-0.075227,0.194461 -0.3801,0.25829 -0.570696,0.279203c-0.088508,0.115467 -0.251451,0.158879 -0.364341,0.175134c-0.028743,0.062937 -0.073047,0.11626 -0.131226,0.157392c-0.142823,0.101096 -0.339761,0.106051 -0.464644,0.095942c-0.056197,0.092275 -0.133506,0.161456 -0.227466,0.202885c-0.138164,0.060856 -0.281978,0.050449 -0.379208,0.030626c-0.167898,0.181675 -0.457607,0.198425 -0.669809,0.169088c-0.133506,0.17781 -0.33094,0.235989 -0.521436,0.235989z" fill="#000000"/>
   <path id="svg_24" d="m25.656827,34.205368l-0.286339,-0.079985c0.082661,-0.295953 0.063135,-1.030186 0.048467,-1.288079l-0.000694,-0.012092l0.001388,-0.011993c0.057387,-0.537294 0.000793,-1.021365 0.000198,-1.026221l0.295259,-0.035384c0.002478,0.020913 0.06036,0.515688 0.001487,1.08113c0.006244,0.118639 0.047475,0.988856 -0.059765,1.372623z" fill="#000000"/>
   <path id="svg_25" d="m26.295415,33.823385l-0.29288,-0.051638c0.043808,-0.248081 0.150851,-0.939596 0.120423,-1.158439l-0.002081,-0.014768l0.000991,-0.014867c0.018336,-0.296449 0.035681,-0.790331 0.008623,-0.935334l0.292286,-0.054612c0.040537,0.217455 0.004262,0.868631 -0.003271,0.994307c0.035384,0.317262 -0.107439,1.140995 -0.12409,1.235351z" fill="#000000"/>
   <path id="svg_26" d="m26.919335,33.548047l-0.285943,-0.08167c0.107142,-0.375244 0.09396,-1.082221 0.093761,-1.089258l-0.000198,-0.009317l0.000991,-0.009317c0.043412,-0.41479 0.000396,-0.850097 0,-0.854458l0.295755,-0.029833c0.001982,0.018732 0.04589,0.464248 0.000892,0.906096c0.001586,0.091878 0.008326,0.769716 -0.105259,1.167756z" fill="#000000"/>
   <path id="svg_27" d="m27.429869,33.147431l-0.281086,-0.097131c0.123,-0.355421 0.122207,-0.906096 0.122207,-0.911547l-0.000099,-0.013678l0.002379,-0.013479c0.061549,-0.341149 -0.036771,-0.637003 -0.037762,-0.639877l0.281185,-0.096834c0.005055,0.014669 0.122504,0.361566 0.051638,0.776158c-0.000396,0.093861 -0.008821,0.621838 -0.138462,0.996388z" fill="#000000"/>
   <path id="svg_28" d="m27.929896,32.890826l-0.295061,-0.037762c0.056891,-0.445614 -0.019922,-0.856936 -0.020715,-0.861098l-0.007235,-0.037663l0.011894,-0.036573c0.082562,-0.252244 0.000396,-0.527978 -0.000496,-0.530654l0.283564,-0.089202c0.004559,0.014371 0.105259,0.341843 0.010704,0.675558c0.019426,0.118837 0.070668,0.499235 0.017345,0.917395z" fill="#000000"/>
   <g id="svg_29">
    <path id="svg_30" d="m28.940557,22.178735c0.245504,-0.034888 0.495171,-0.042619 0.744739,-0.030824c0.24937,0.013579 0.500028,0.046286 0.745334,0.11289c0.245207,0.065018 0.486647,0.162348 0.7044,0.309135c0.217752,0.144607 0.410826,0.342635 0.536105,0.581796l-0.218744,-0.021607c0.102285,-0.144111 0.190001,-0.324993 0.247685,-0.501911c0.059865,-0.1789 0.094852,-0.364936 0.096239,-0.550576c0.003568,-0.371874 -0.129938,-0.734233 -0.357007,-1.038611l-0.017543,-0.023292l-0.006343,-0.025571c-0.083454,-0.330246 -0.132911,-0.65514 -0.173845,-0.985684c-0.041529,-0.329255 -0.059865,-0.661087 -0.066505,-0.992226c-0.003568,-0.331436 0.008722,-0.662871 0.044205,-0.99173c0.034293,-0.32876 0.090887,-0.655041 0.174142,-0.973394c-0.030725,0.32757 -0.046385,0.654347 -0.047475,0.980332c0,0.326083 0.011993,0.651176 0.03915,0.97498c0.024481,0.323903 0.067298,0.645824 0.115765,0.96606c0.050746,0.318749 0.115566,0.64067 0.193271,0.946237l-0.023787,-0.048863c0.12974,0.171268 0.238963,0.362062 0.313199,0.568614c0.074434,0.206553 0.108232,0.428369 0.104168,0.647509c-0.004559,0.219437 -0.047178,0.435901 -0.119927,0.639282c-0.076714,0.204372 -0.171764,0.390111 -0.310622,0.571588l-0.126568,0.165817l-0.092176,-0.187424c-0.099014,-0.201597 -0.249072,-0.378118 -0.43382,-0.518265c-0.185144,-0.139552 -0.399824,-0.246099 -0.625307,-0.327967c-0.226474,-0.079687 -0.463554,-0.138263 -0.704697,-0.176918c-0.241143,-0.03915 -0.486548,-0.064523 -0.734035,-0.069379z" fill="#000000"/>
   </g>
   <rect id="svg_31" height="2.291306" width="0.297341" fill="#000000" y="31.796612" x="24.612864"/>
  </g>
 </g>
</svg>