<svg xmlns="http://www.w3.org/2000/svg" xmlns:xlink="http://www.w3.org/1999/xlink"><symbol id="sprite-skull" viewBox="0 0 50 50"><title>skull</title><title>background</title><path fill="none" d="M-1-1h52v52H-1z"/><g><title>Layer 1</title><path d="M24.648 48.266l-3.998-.408-.08-1.557-2.254-.596-.84 1.314-3.677-1.623.405-1.507-1.959-1.263-1.205.99-2.995-2.68.85-1.307-1.472-1.807-1.452.569-2.02-3.474 1.212-.981-.842-2.173-1.557.092-.848-3.928 1.457-.558-.13-2.327-1.51-.394.408-3.998 1.558-.08.596-2.254-1.314-.84 1.623-3.677 1.507.405 1.263-1.959-.99-1.205 2.68-2.995 1.307.85 1.807-1.472-.569-1.452 3.474-2.02.981 1.212 2.173-.842-.092-1.557 3.928-.848.558 1.456 2.327-.129.394-1.51 3.998.408.08 1.558 2.254.596.84-1.314 3.677 1.623-.405 1.507 1.959 1.263 1.205-.99 2.995 2.68-.85 1.307 1.472 1.807 1.452-.569 2.02 3.474-1.212.981.842 2.173 1.557-.092.848 3.928-1.457.558.13 2.327 1.51.394-.409 3.998-1.557.08-.596 2.254 1.314.84-1.624 3.677-1.506-.405-1.263 1.959.99 1.205-2.68 2.995-1.307-.85-1.807 1.472.569 1.452-3.474 2.02-.981-1.212-2.173.842.092 1.557-3.928.848-.559-1.457-2.326.13-.394 1.51zm-3.052-1.307l2.307.235.362-1.387 3.77-.21.513 1.339 2.267-.49-.084-1.43 3.521-1.364.901 1.114 2.005-1.166-.523-1.335 2.928-2.385 1.201.78 1.547-1.728-.91-1.107 2.047-3.174 1.384.372.937-2.122-1.207-.772.966-3.65 1.43-.075.236-2.308-1.387-.36-.21-3.772 1.339-.512-.49-2.267-1.43.084-1.365-3.521 1.115-.901-1.166-2.005-1.335.523-2.385-2.928.78-1.201-1.728-1.547-1.107.91-3.174-2.047.372-1.384L32.9 4.23l-.772 1.207-3.651-.966-.074-1.43-2.308-.236-.361 1.387-3.77.209-.513-1.338-2.268.49.085 1.43-3.521 1.364-.901-1.114L12.842 6.4l.523 1.334-2.928 2.386-1.201-.78-1.547 1.728.91 1.107-2.047 3.174-1.384-.372-.937 2.122 1.207.772-.966 3.65-1.43.075-.236 2.308 1.387.36.21 3.772-1.339.512.49 2.267 1.43-.085 1.364 3.522-1.114.901L6.4 37.158l1.335-.523 2.385 2.928-.78 1.201 1.728 1.547 1.107-.91 3.174 2.047-.372 1.384 2.122.937.772-1.207 3.651.966.074 1.43z"/><path d="M26.603 42.724a.446.446 0 0 1-.04-.89l.096-.009a.446.446 0 1 1 .087.888l-.102.01a.437.437 0 0 1-.04.001zm-3.952-.084a.45.45 0 0 1-.06-.004l-.1-.014a.446.446 0 0 1 .123-.883l.096.013a.446.446 0 0 1-.06.888zm7.918-.755a.446.446 0 0 1-.144-.869l.093-.031a.446.446 0 1 1 .29.843l-.095.033a.445.445 0 0 1-.144.024zm-11.845-.257a.446.446 0 0 1-.161-.03l-.096-.038a.446.446 0 0 1 .328-.83l.09.036a.446.446 0 0 1-.161.862zm15.505-1.485a.446.446 0 0 1-.238-.823l.082-.052a.446.446 0 1 1 .48.752l-.086.054a.444.444 0 0 1-.238.069zm-19.087-.415a.444.444 0 0 1-.253-.08l-.084-.058a.446.446 0 0 1 .512-.73l.079.055a.446.446 0 0 1-.254.813zm22.243-2.129a.444.444 0 0 1-.319-.758l.068-.07a.446.446 0 0 1 .64.622l-.07.073a.445.445 0 0 1-.32.133zm-25.286-.55a.445.445 0 0 1-.331-.147l-.068-.075a.446.446 0 0 1 .666-.594l.064.072a.446.446 0 0 1-.33.745zm27.77-2.653a.445.445 0 0 1-.382-.676l.05-.083a.446.446 0 0 1 .766.456l-.052.087a.446.446 0 0 1-.383.216zm-30.112-.653a.446.446 0 0 1-.392-.233l-.048-.09a.446.446 0 0 1 .786-.421l.045.084a.446.446 0 0 1-.391.66zm31.784-3.04a.446.446 0 0 1-.425-.581l.03-.093a.446.446 0 0 1 .85.265l-.03.098a.446.446 0 0 1-.425.31zM8.247 29.98a.446.446 0 0 1-.43-.33l-.027-.097a.446.446 0 0 1 .863-.229l.024.094a.446.446 0 0 1-.43.562zm34.059-3.26a.446.446 0 0 1-.445-.477l.006-.097a.446.446 0 0 1 .89.06l-.007.1a.446.446 0 0 1-.444.415zm-34.65-.75a.446.446 0 0 1-.446-.432l-.002-.101a.446.446 0 0 1 .891-.022l.003.097a.446.446 0 0 1-.433.459h-.013zm34.474-3.299a.446.446 0 0 1-.44-.375l-.015-.095a.446.446 0 1 1 .88-.147l.016.1a.446.446 0 0 1-.44.517zm-34.125-.738a.446.446 0 0 1-.437-.536l.02-.1a.446.446 0 0 1 .873.185l-.02.095a.446.446 0 0 1-.436.356zm33.018-3.16a.446.446 0 0 1-.413-.276l-.036-.087a.446.446 0 0 1 .82-.348l.04.094a.446.446 0 0 1-.411.617zm-31.741-.688a.446.446 0 0 1-.403-.636l.043-.091a.446.446 0 1 1 .806.382l-.042.089a.446.446 0 0 1-.404.256zm29.754-2.843a.446.446 0 0 1-.36-.183l-.058-.079a.446.446 0 1 1 .719-.528l.06.08a.446.446 0 0 1-.36.71zm-27.615-.6a.446.446 0 0 1-.348-.724l.063-.08a.446.446 0 1 1 .695.56l-.06.075a.446.446 0 0 1-.35.168zm24.864-2.377a.444.444 0 0 1-.29-.108l-.073-.062a.446.446 0 0 1 .576-.681l.078.066a.446.446 0 0 1-.29.785zm-21.986-.48a.445.445 0 0 1-.276-.796l.08-.063a.446.446 0 0 1 .547.705l-.076.06a.444.444 0 0 1-.275.095zm18.622-1.782a.445.445 0 0 1-.204-.05l-.086-.043a.446.446 0 1 1 .403-.796l.091.046a.446.446 0 0 1-.204.843zm-15.164-.33a.446.446 0 0 1-.187-.851l.092-.042a.446.446 0 0 1 .368.812l-.087.04a.446.446 0 0 1-.186.041zm11.365-1.087a.448.448 0 0 1-.106-.013l-.094-.022a.446.446 0 0 1 .207-.868l.099.024a.446.446 0 0 1-.106.88zm-7.51-.162a.446.446 0 0 1-.086-.883l.1-.02a.446.446 0 0 1 .167.876l-.095.019a.456.456 0 0 1-.087.008zm3.487-.33H25a.446.446 0 0 1 0-.893h.102a.446.446 0 0 1-.003.893z"/><path d="M25 43.704c-10.314 0-18.704-8.39-18.704-18.704S14.686 6.296 25 6.296c10.313 0 18.704 8.39 18.704 18.704 0 10.313-8.39 18.704-18.704 18.704zm0-37.21C14.796 6.494 6.494 14.796 6.494 25S14.796 43.506 25 43.506 43.506 35.204 43.506 25 35.204 6.494 25 6.494z"/><path d="M23.826 24.93s-.968-.444-1.065-1.025c0 0-.678-.532-1.84-.532 0 0-2.566-.194-2.372 1.84 0 0 .194 1.888 2.856 1.742 0 0 1.84.283 2.13-.871l.291-1.154zm-3.748 3.853s-.4 2.087 1.344 3.926c0 0-.29-3.263 0-3.453 0 0-.572-.58-1.344-.473zm9.367 0s.4 2.087-1.344 3.926c0 0 .291-3.263 0-3.453 0 0 .572-.58 1.344-.473zm-5.579 5.422c-.107-.383-.066-1.254-.06-1.372a5.386 5.386 0 0 1 .002-1.081l.295.035c0 .005-.057.49 0 1.026l.002.012v.012c-.015.258-.035.993.048 1.288l-.287.08zm-.638-.382c-.017-.094-.16-.918-.125-1.235-.007-.126-.043-.777-.003-.994l.292.054c-.027.145-.01.639.009.936v.014l-.001.015c-.03.22.076.91.12 1.159l-.292.051zm-.624-.275c-.114-.398-.107-1.076-.106-1.168a5.1 5.1 0 0 1 .001-.906l.296.03c0 .004-.043.44 0 .855v.019c0 .006-.013.713.095 1.088l-.286.082zm-.511-.401c-.13-.374-.138-.902-.138-.996a1.71 1.71 0 0 1 .051-.776l.282.097c-.001.003-.1.299-.038.64l.002.013v.014c0 .005 0 .556.122.911l-.28.097zm-.5-.257a3.389 3.389 0 0 1 .017-.917 1.308 1.308 0 0 1 .01-.675l.285.089-.142-.045.142.044a1 1 0 0 0 0 .532l.011.036-.007.038a3.062 3.062 0 0 0-.02.861l-.296.038zM20.582 22.179a5.24 5.24 0 0 0-.734.069 4.07 4.07 0 0 0-.704.177c-.226.082-.44.188-.626.328-.184.14-.335.317-.434.518l-.092.188-.126-.166a2.17 2.17 0 0 1-.31-.572 2.025 2.025 0 0 1-.12-.639c-.005-.22.029-.441.103-.647a2.15 2.15 0 0 1 .314-.57l-.024.05a10.6 10.6 0 0 0 .193-.946c.049-.32.091-.643.116-.967a10.955 10.955 0 0 0-.008-1.955c.083.318.14.645.174.974.035.328.048.66.044.991a9.389 9.389 0 0 1-.24 1.978l-.007.026-.017.023a1.72 1.72 0 0 0-.357 1.039c.001.185.036.371.096.55.058.177.145.358.248.502l-.22.022c.126-.24.32-.438.537-.582a2.31 2.31 0 0 1 .705-.31 3.98 3.98 0 0 1 1.49-.082z"/><path d="M18.918 28.802c.126.004.24-.033.358-.067.117-.032.235-.07.356-.099.243-.06.5-.098.764-.08.263.016.533.1.75.26.218.158.375.38.453.621a2.263 2.263 0 0 0-.574-.422 1.752 1.752 0 0 0-.65-.163 5.253 5.253 0 0 0-.708.014 5.815 5.815 0 0 1-.373.013c-.124-.005-.264-.008-.376-.077zM27.924 29.437a1.29 1.29 0 0 1 .448-.626c.216-.162.49-.248.754-.261.266-.016.523.029.764.09.12.031.238.07.355.101.117.034.231.067.358.061-.11.071-.25.078-.376.084a4.182 4.182 0 0 1-.375-.015c-.245-.018-.48-.038-.708-.024a1.637 1.637 0 0 0-.648.162c-.204.1-.388.253-.572.428z"/><path d="M26.131 37.344c-.38 0-.84-.037-1.37-.11a10.37 10.37 0 0 1-1.369.11c-.788 0-1.268-.152-1.513-.477a.723.723 0 0 1-.146-.363c-.241-.461-1.132-1.38-1.726-1.92-1.458-1.276-1.582-4.34-1.584-5.289-.565-.405-1.596-1.325-1.625-2.108-.014-.391.2-.712.586-.88l.063-.027.054-.007c.051-.12.028-.48-.051-.757-1.65-4.304-1.67-7.676-.058-10.022 2.214-3.223 6.792-3.316 7.307-3.316a4.116 4.116 0 0 1 .126 0c.514 0 5.093.093 7.307 3.316 1.612 2.346 1.592 5.718-.058 10.021-.08.284-.103.638-.052.757l.048.007.07.028c.393.171.61.495.595.888-.029.763-1.067 1.688-1.635 2.098-.002.945-.125 4.015-1.59 5.297-.548.498-1.47 1.432-1.72 1.913a.72.72 0 0 1-.146.364c-.244.325-.725.477-1.513.477zm-1.37-1.11l.07.01c.512.072.95.109 1.3.109.389 0 .587-.045.678-.077l.026-.064c.316-.792 1.734-2.106 2.014-2.361 1.13-.99 1.29-3.801 1.257-4.802l-.012-.363.309-.109c.339-.207 1.211-.994 1.329-1.354a.917.917 0 0 1-.531-.392c-.36-.555-.123-1.442-.072-1.614l.012-.037c1.534-3.99 1.592-7.06.174-9.124-1.927-2.806-6.029-2.887-6.49-2.887h-.126c-.461 0-4.563.081-6.49 2.887-1.419 2.064-1.36 5.134.173 9.124l.013.037c.051.173.287 1.06-.072 1.614a.916.916 0 0 1-.52.39c.118.357.974 1.167 1.31 1.354l.313.126-.009.349c-.033 1 .127 3.812 1.25 4.795.288.261 1.705 1.575 2.021 2.367l.026.065c.091.03.29.076.678.076.351 0 .789-.036 1.3-.109l.07-.01z"/><path d="M25.697 24.93s.968-.444 1.065-1.025c0 0 .678-.532 1.84-.532 0 0 2.566-.194 2.372 1.84 0 0-.193 1.888-2.856 1.742 0 0-1.84.283-2.13-.871l-.29-1.154zm-.935 1.541s.112-.387.306.13c0 0 .607 1.504.891 1.91a.538.538 0 0 0 .045.058c.258.29.548 1.065-.775 1.162l-.232.176a.39.39 0 0 1-.47 0l-.233-.176c-1.323-.097-1.033-.871-.774-1.162a.64.64 0 0 0 .044-.058c.284-.406.891-1.91.891-1.91.194-.517.307-.13.307-.13m.765 5.533l-.074-.137a.16.16 0 0 0-.106-.086c-.162-.042-.426.091-.506.141l-.08.05-.079-.05c-.08-.05-.344-.183-.506-.14a.16.16 0 0 0-.106.085l-.074.137-.134-.08c-.182-.11-.41-.196-.474-.18l-.08.066-.093-.063c-.178-.12-.388-.185-.42-.146l-.079.094-.107-.059a1.105 1.105 0 0 0-.336-.126l-.05.138-.156-.1a.465.465 0 0 0-.18-.069l-.131.174-.11-.205c-.025-.045-.118-.18-.216-.198-.027-.005-.07-.005-.136.05l-.19-.228a.449.449 0 0 1 .383-.114c.153.03.269.14.34.23.094-.016.2.01.298.054a.25.25 0 0 1 .023-.01c.15-.056.373.03.517.099.208-.107.504.04.648.126.178-.042.42.059.588.147a.453.453 0 0 1 .2-.11c.243-.064.524.059.66.131.138-.072.419-.195.662-.132.077.02.144.058.2.11.167-.087.41-.188.587-.146.143-.085.433-.229.64-.13.165-.092.36-.143.508-.063a.596.596 0 0 1 .341-.074.603.603 0 0 1 .338-.215.462.462 0 0 1 .388.117l-.19.228c-.078-.064-.128-.055-.145-.052-.101.018-.195.15-.214.184l-.112.195-.125-.165a.58.58 0 0 0-.217.087l-.113.07-.083-.104c-.03-.038-.193.02-.298.093l-.112.078-.087-.105c-.033-.04-.243.025-.42.146l-.093.063-.08-.066c-.066-.016-.293.07-.475.18l-.134.08zm-.27 2.384c-.2 0-.392-.08-.496-.13-.174.086-.598.252-.896-.016-.193.006-.48-.052-.598-.3-.175-.015-.502-.074-.626-.298a.675.675 0 0 1-.464-.32.527.527 0 0 1-.297-.05.573.573 0 0 1-.281-.357c-.115-.094-.424-.364-.501-.611l.284-.089c.046.15.293.383.437.495l.04.03.013.05c.03.111.077.184.141.216a.267.267 0 0 0 .192.006l.142-.056.053.143a.39.39 0 0 0 .346.258h.12l.026.116c.027.122.327.174.482.174h.118l.027.116c.05.22.38.177.383.176l.08-.011.054.062c.203.237.643-.027.647-.03l.078-.048.079.048c.004.002.444.267.647.03l.053-.062.08.011c.013.002.334.04.384-.176l.026-.116h.119c.155 0 .455-.052.482-.174l.026-.116h.12a.407.407 0 0 0 .348-.264l.056-.135.136.054s.106.04.194-.007c.063-.032.11-.105.14-.216l.016-.06.055-.031c.133-.075.354-.25.378-.396l.293.049c-.046.277-.345.493-.473.574a.569.569 0 0 1-.277.347.526.526 0 0 1-.301.049.693.693 0 0 1-.46.32c-.124.225-.452.284-.626.298-.118.25-.407.307-.599.301a.58.58 0 0 1-.4.146z"/><path d="M25.139 33.17c-.139 0-.273-.031-.378-.07-.247.09-.668.14-.899-.167-.212.03-.502.013-.67-.169a.634.634 0 0 1-.379-.03.502.502 0 0 1-.227-.203c-.125.01-.322.005-.465-.096a.39.39 0 0 1-.131-.158c-.129-.017-.315-.062-.411-.182-.162-.019-.444-.079-.52-.272l.278-.107c.026.035.196.08.341.089l.106.006.03.102c.021.03.172.072.295.077l.124.005.017.123a.1.1 0 0 0 .043.074c.084.06.272.047.35.031l.124-.024.045.118c.027.073.067.12.121.144.113.05.263-.006.264-.006l.126-.051.062.121c.082.161.407.124.515.099l.114-.027.053.104c.157.31.63.106.634.103l.06-.026.06.027c.02.008.479.203.635-.104l.053-.105.114.028c.107.025.432.062.515-.099l.061-.121.126.05c.041.017.17.05.266.007.054-.024.093-.071.12-.144l.045-.119.124.026c.078.015.266.028.35-.032a.1.1 0 0 0 .042-.074l.018-.125.126-.003c.111-.004.23-.042.246-.07l.028-.101.105-.006c.171-.011.365-.062.399-.104l.274.114c-.076.194-.38.258-.571.28-.089.115-.251.158-.364.174a.39.39 0 0 1-.132.158c-.142.1-.34.106-.464.096a.503.503 0 0 1-.228.203.635.635 0 0 1-.379.03c-.168.182-.457.199-.67.17-.133.177-.33.235-.521.235z"/><path d="M25.657 34.205l-.287-.08c.083-.296.064-1.03.049-1.288v-.024a5.063 5.063 0 0 0 0-1.026l.296-.035c.003.02.06.515.002 1.08.006.12.047.99-.06 1.373zm.638-.382l-.292-.051c.043-.248.15-.94.12-1.159l-.002-.014v-.015c.02-.297.037-.79.01-.936l.292-.054c.04.217.004.868-.003.994.035.317-.108 1.141-.125 1.235zm.625-.275l-.287-.082c.108-.375.094-1.082.094-1.089v-.019c.044-.414.001-.85 0-.854l.297-.03c.002.019.046.464 0 .906.002.092.009.77-.105 1.168zm.51-.401l-.281-.097c.123-.355.122-.906.122-.911v-.014l.002-.013a1.43 1.43 0 0 0-.037-.64l.28-.097c.006.015.123.361.052.776 0 .094-.008.622-.138.996zm.5-.257l-.295-.037a3.107 3.107 0 0 0-.02-.861l-.008-.038.012-.036c.082-.253 0-.528 0-.53l.283-.09c.004.014.105.342.01.675.02.12.071.5.018.918zM28.94 22.179a3.965 3.965 0 0 1 1.49.082c.246.065.487.162.705.309.218.145.41.343.536.582l-.219-.022c.103-.144.19-.325.248-.502.06-.179.095-.365.096-.55a1.72 1.72 0 0 0-.357-1.039l-.017-.023-.007-.026a9.442 9.442 0 0 1-.24-1.978 8.403 8.403 0 0 1 .044-.991 6.62 6.62 0 0 1 .174-.974 10.882 10.882 0 0 0-.008 1.955c.025.324.067.646.116.967.05.318.115.64.193.946l-.024-.05c.13.172.24.363.314.57.074.206.108.428.104.647-.005.22-.047.436-.12.64a2.17 2.17 0 0 1-.31.57l-.127.167-.093-.188a1.467 1.467 0 0 0-.433-.518c-.186-.14-.4-.246-.626-.328a4.065 4.065 0 0 0-.704-.177 5.223 5.223 0 0 0-.734-.07zM24.613 31.797h.297v2.291h-.297z"/></g></symbol><use xlink:href="#sprite-skull" width="50" height="50"/><view id="sprite-skull-fragment" viewBox="0 0 50 50"/></svg>